{
    "asset" : {
        "generator" : "Khronos glTF Blender I/O v1.5.17",
        "version" : "2.0"
    },
    "scene" : 0,
    "scenes" : [
        {
            "name" : "Scene",
            "nodes" : [
                0,
                1,
                2,
                3
            ]
        }
    ],
    "nodes" : [
        {
            "name" : "Lamp.001",
            "rotation" : [
                0.2652508020401001,
                0.7915559411048889,
                -0.13737374544143677,
                0.5331131815910339
            ],
            "scale" : [
                1.0064728260040283,
                1.0569899082183838,
                1.0215054750442505
            ],
            "translation" : [
                -3.5081920623779297,
                5.851099967956543,
                4.357040882110596
            ]
        },
        {
            "mesh" : 0,
            "name" : "Queen",
            "scale" : [
                1,
                0.7926586866378784,
                1
            ]
        },
        {
            "name" : "Lamp",
            "rotation" : [
                0.2652508020401001,
                0.7915559411048889,
                -0.13737374544143677,
                0.5331131815910339
            ],
            "scale" : [
                1.0064728260040283,
                1.0569899082183838,
                1.0215054750442505
            ],
            "translation" : [
                4.076245307922363,
                6.723052024841309,
                0.6130791306495667
            ]
        },
        {
            "name" : "Camera",
            "rotation" : [
                -0.03829224035143852,
                0.7812559604644775,
                -0.6190585494041443,
                -0.07028035819530487
            ],
            "scale" : [
                1.0048935413360596,
                1.0038453340530396,
                1.0752545595169067
            ],
            "translation" : [
                -1.0634326934814453,
                2.4631619453430176,
                -8.24342155456543
            ]
        }
    ],
    "meshes" : [
        {
            "name" : "Queen",
            "primitives" : [
                {
                    "attributes" : {
                        "POSITION" : 0,
                        "NORMAL" : 1
                    },
                    "indices" : 2
                }
            ]
        }
    ],
    "accessors" : [
        {
            "bufferView" : 0,
            "componentType" : 5126,
            "count" : 2578,
            "max" : [
                0.8853889107704163,
                1.7210077047348022,
                0.9131407737731934
            ],
            "min" : [
                -0.8864992260932922,
                0.0017892569303512573,
                -0.8581531643867493
            ],
            "type" : "VEC3"
        },
        {
            "bufferView" : 1,
            "componentType" : 5126,
            "count" : 2578,
            "type" : "VEC3"
        },
        {
            "bufferView" : 2,
            "componentType" : 5123,
            "count" : 3972,
            "type" : "SCALAR"
        }
    ],
    "bufferViews" : [
        {
            "buffer" : 0,
            "byteLength" : 30936,
            "byteOffset" : 0
        },
        {
            "buffer" : 0,
            "byteLength" : 30936,
            "byteOffset" : 30936
        },
        {
            "buffer" : 0,
            "byteLength" : 7944,
            "byteOffset" : 61872
        }
    ],
    "buffers" : [
        {
            "byteLength" : 69816,
            "uri" : "data:application/octet-stream;base64,"
        }
    ]
}
